<?xml version="1.0" standalone="no"?><svg xmlns="http://www.w3.org/2000/svg" viewBox="0 0 1440 320"><path fill="#87bdd8" fill-opacity="0.9" d="M0,64L30,58.7C60,53,120,43,180,74.7C240,107,300,181,360,218.7C420,256,480,256,540,250.7C600,245,660,235,720,197.3C780,160,840,96,900,90.7C960,85,1020,139,1080,154.7C1140,171,1200,149,1260,165.3C1320,181,1380,235,1410,261.3L1440,288L1440,0L1410,0C1380,0,1320,0,1260,0C1200,0,1140,0,1080,0C1020,0,960,0,900,0C840,0,780,0,720,0C660,0,600,0,540,0C480,0,420,0,360,0C300,0,240,0,180,0C120,0,60,0,30,0L0,0Z"></path></svg>